<svg xmlns:xlink="http://www.w3.org/1999/xlink" xmlns="http://www.w3.org/2000/svg" viewBox="0 0 32 32" id="svg12116377945" width="32"  height="32" ><path d="M 4.333 9.333 C 4.333 7.308 5.975 5.667 8 5.667 L 24 5.667 C 26.025 5.667 27.667 7.308 27.667 9.333 L 27.667 22.667 C 27.667 24.692 26.025 26.333 24 26.333 L 8 26.333 C 5.975 26.333 4.333 24.692 4.333 22.667 Z M 8 7.667 C 7.08 7.667 6.333 8.413 6.333 9.333 L 6.333 22.667 C 6.333 23.587 7.08 24.333 8 24.333 L 24 24.333 C 24.92 24.333 25.667 23.587 25.667 22.667 L 25.667 9.333 C 25.667 8.413 24.92 7.667 24 7.667 Z" fill="#FFFFFF"></path><path d="M 5.667 13.333 C 5.667 12.781 6.114 12.333 6.667 12.333 L 26.667 12.333 C 27.219 12.333 27.667 12.781 27.667 13.333 C 27.667 13.886 27.219 14.333 26.667 14.333 L 6.667 14.333 C 6.114 14.333 5.667 13.886 5.667 13.333 Z M 8.667 9 C 9.219 9 9.667 9.448 9.667 10 L 9.667 10.013 C 9.667 10.566 9.219 11.013 8.667 11.013 C 8.114 11.013 7.667 10.566 7.667 10.013 L 7.667 10 C 7.667 9.448 8.114 9 8.667 9 Z M 11.333 9 C 11.886 9 12.333 9.448 12.333 10 L 12.333 10.013 C 12.333 10.566 11.886 11.013 11.333 11.013 C 10.781 11.013 10.333 10.566 10.333 10.013 L 10.333 10 C 10.333 9.448 10.781 9 11.333 9 Z M 14 9 C 14.552 9 15 9.448 15 10 L 15 10.013 C 15 10.566 14.552 11.013 14 11.013 C 13.448 11.013 13 10.566 13 10.013 L 13 10 C 13 9.448 13.448 9 14 9 Z" fill="#FFFFFF"></path></svg>