<svg xmlns:xlink="http://www.w3.org/1999/xlink" xmlns="http://www.w3.org/2000/svg" viewBox="0 0 32 32" id="svg12773565855" width="32"  height="32" ><path d="M 13.532 6.417 L 14.111 7.233 M 15.348 5.351 L 15.104 4.38 M 18.468 6.417 L 17.889 7.233 M 16.652 5.351 L 16.896 4.38 M 8.123 25.709 L 8.576 24.819 M 6.957 24.544 L 7.848 24.091 M 25.043 24.544 L 24.152 24.091 M 23.877 25.709 L 23.424 24.819 M 25.224 11.912 L 26.184 11.631 M 23.536 10.013 L 24.115 9.197 M 24.763 11.016 L 25.547 10.396 M 6.776 11.913 L 5.816 11.632 M 8.467 10.013 L 7.888 9.197 M 7.24 11.016 L 6.456 10.396 M 13.333 20.333 C 12.781 20.333 12.333 20.781 12.333 21.333 C 12.333 21.886 12.781 22.333 13.333 22.333 Z M 18.667 22.333 C 19.219 22.333 19.667 21.886 19.667 21.333 C 19.667 20.781 19.219 20.333 18.667 20.333 Z M 24.333 13.492 L 24.333 21.733 L 26.333 21.733 L 26.333 13.492 Z M 21.067 25 L 10.933 25 L 10.933 27 L 21.067 27 Z M 7.667 21.733 L 7.667 13.492 L 5.667 13.492 L 5.667 21.733 Z M 9.043 10.827 L 14.109 7.233 L 12.953 5.603 L 7.887 9.196 L 9.043 10.828 Z M 17.891 7.233 L 22.957 10.828 L 24.113 9.196 L 19.047 5.603 Z M 14.111 7.233 C 15.067 6.553 15.335 6.385 15.593 6.32 L 15.104 4.38 C 14.395 4.559 13.773 5.02 12.953 5.603 L 14.109 7.233 Z M 19.047 5.603 C 18.227 5.02 17.605 4.559 16.896 4.38 L 16.407 6.32 C 16.665 6.385 16.933 6.555 17.891 7.233 Z M 15.593 6.32 C 15.86 6.253 16.14 6.253 16.407 6.32 L 16.896 4.38 C 16.308 4.232 15.692 4.232 15.104 4.38 Z M 10.933 25 C 10.171 25 9.657 25 9.263 24.967 C 8.88 24.936 8.697 24.88 8.577 24.819 L 7.669 26.6 C 8.119 26.829 8.593 26.92 9.1 26.96 C 9.595 27 10.203 27 10.933 27 Z M 5.667 21.733 C 5.667 22.464 5.667 23.071 5.707 23.567 C 5.747 24.073 5.837 24.548 6.067 24.997 L 7.848 24.091 C 7.787 23.969 7.731 23.787 7.7 23.403 C 7.668 23.009 7.667 22.496 7.667 21.733 Z M 8.577 24.819 C 8.263 24.659 8.008 24.403 7.848 24.089 L 6.067 24.997 C 6.418 25.687 6.979 26.248 7.669 26.6 L 8.576 24.819 Z M 24.333 21.733 C 24.333 22.496 24.333 23.009 24.3 23.403 C 24.269 23.787 24.213 23.969 24.152 24.089 L 25.933 24.997 C 26.163 24.548 26.253 24.072 26.293 23.567 C 26.333 23.071 26.333 22.464 26.333 21.733 Z M 21.067 27 C 21.797 27 22.404 27 22.9 26.96 C 23.407 26.92 23.881 26.829 24.331 26.6 L 23.424 24.819 C 23.303 24.88 23.12 24.936 22.736 24.967 C 22.343 24.999 21.829 25 21.067 25 Z M 24.152 24.089 C 23.992 24.403 23.737 24.659 23.423 24.819 L 24.331 26.6 C 25.02 26.249 25.581 25.688 25.933 24.999 L 24.152 24.091 Z M 26.333 13.492 C 26.333 12.745 26.343 12.169 26.184 11.631 L 24.265 12.195 C 24.324 12.392 24.333 12.624 24.333 13.492 Z M 22.957 10.827 C 23.664 11.328 23.848 11.471 23.976 11.632 L 25.547 10.393 C 25.197 9.953 24.724 9.627 24.113 9.195 Z M 26.184 11.629 C 26.052 11.18 25.835 10.761 25.545 10.393 L 23.976 11.632 C 24.107 11.799 24.205 11.989 24.265 12.193 L 26.185 11.629 Z M 7.667 13.492 C 7.667 12.625 7.676 12.392 7.733 12.195 L 5.816 11.631 C 5.656 12.169 5.667 12.744 5.667 13.492 Z M 7.887 9.196 C 7.277 9.628 6.803 9.953 6.455 10.396 L 8.024 11.633 C 8.152 11.472 8.336 11.329 9.043 10.828 Z M 7.733 12.196 C 7.793 11.992 7.891 11.801 8.023 11.633 L 6.453 10.395 C 6.163 10.762 5.946 11.182 5.813 11.631 L 7.733 12.195 Z M 13.333 22.333 L 18.667 22.333 L 18.667 20.333 L 13.333 20.333 Z" fill="#FFFFFF"></path></svg>