<svg xmlns:xlink="http://www.w3.org/1999/xlink" xmlns="http://www.w3.org/2000/svg" viewBox="0 0 24 24" id="svg12732077127" width="24"  height="24" ><path d="M 12 3 C 9.556 3 9.25 3.01 8.29 3.054 C 7.331 3.098 6.677 3.25 6.104 3.473 C 5.504 3.698 4.96 4.053 4.51 4.511 C 4.053 4.961 3.698 5.504 3.472 6.104 C 3.251 6.677 3.098 7.332 3.054 8.29 C 3.011 9.25 3 9.555 3 12 C 3 14.445 3.01 14.75 3.054 15.71 C 3.098 16.669 3.25 17.323 3.473 17.896 C 3.698 18.496 4.053 19.04 4.511 19.49 C 4.961 19.948 5.504 20.302 6.104 20.528 C 6.677 20.75 7.331 20.902 8.29 20.946 C 9.25 20.99 9.556 21 12 21 C 14.444 21 14.75 20.99 15.71 20.946 C 16.669 20.902 17.323 20.75 17.896 20.527 C 18.496 20.302 19.04 19.947 19.49 19.489 C 19.948 19.039 20.302 18.496 20.528 17.896 C 20.75 17.323 20.902 16.669 20.946 15.71 C 20.99 14.75 21 14.444 21 12 C 21 9.556 20.99 9.25 20.946 8.29 C 20.902 7.331 20.75 6.677 20.527 6.104 C 20.301 5.504 19.947 4.96 19.49 4.51 C 19.041 4.052 18.497 3.698 17.897 3.472 C 17.324 3.251 16.669 3.098 15.711 3.054 C 14.75 3.011 14.445 3 12 3 Z M 12 4.622 C 14.403 4.622 14.688 4.631 15.637 4.674 C 16.514 4.714 16.991 4.86 17.308 4.984 C 17.728 5.147 18.028 5.342 18.343 5.657 C 18.658 5.972 18.853 6.272 19.016 6.692 C 19.139 7.009 19.286 7.486 19.326 8.362 C 19.369 9.312 19.378 9.597 19.378 12 C 19.378 14.403 19.369 14.688 19.326 15.637 C 19.286 16.514 19.14 16.991 19.016 17.308 C 18.872 17.699 18.642 18.053 18.343 18.343 C 18.053 18.642 17.699 18.872 17.308 19.016 C 16.991 19.139 16.514 19.286 15.638 19.326 C 14.688 19.369 14.404 19.378 12 19.378 C 9.596 19.378 9.312 19.369 8.363 19.326 C 7.486 19.286 7.009 19.14 6.692 19.016 C 6.301 18.872 5.947 18.642 5.657 18.343 C 5.358 18.053 5.128 17.699 4.984 17.308 C 4.861 16.991 4.714 16.514 4.674 15.638 C 4.631 14.688 4.622 14.403 4.622 12 C 4.622 9.597 4.631 9.312 4.674 8.363 C 4.714 7.486 4.86 7.009 4.984 6.692 C 5.147 6.272 5.342 5.972 5.657 5.657 C 5.947 5.358 6.301 5.128 6.692 4.984 C 7.009 4.861 7.486 4.714 8.362 4.674 C 9.312 4.631 9.597 4.622 12 4.622 Z" fill="#FFFFFF"></path><path d="M 12 15.003 C 10.341 15.003 8.997 13.659 8.997 12 C 8.997 10.341 10.341 8.997 12 8.997 C 13.659 8.997 15.003 10.341 15.003 12 C 15.003 13.659 13.659 15.003 12 15.003 Z M 12 7.374 C 9.445 7.374 7.374 9.445 7.374 12 C 7.374 14.555 9.445 16.626 12 16.626 C 14.555 16.626 16.626 14.555 16.626 12 C 16.626 9.445 14.555 7.374 12 7.374 Z M 17.972 7.29 C 17.972 7.894 17.482 8.383 16.879 8.383 C 16.275 8.383 15.785 7.894 15.785 7.29 C 15.785 6.686 16.275 6.197 16.879 6.197 C 17.482 6.197 17.972 6.686 17.972 7.29 Z" fill="#FFFFFF"></path></svg>