<!DOCTYPE svg PUBLIC "-//W3C//DTD SVG 1.1//EN" "http://www.w3.org/Graphics/SVG/1.1/DTD/svg11.dtd">
<!-- Uploaded to: SVG Repo, www.svgrepo.com, Transformed by: SVG Repo Mixer Tools -->
<svg fill="#ffffff" width="212px" height="212px" viewBox="-5.28 -5.28 34.56 34.56" role="img" xmlns="http://www.w3.org/2000/svg" transform="matrix(1, 0, 0, 1, 0, 0)rotate(0)" stroke="#ffffff" stroke-width="0.00024000000000000003">
<g id="SVGRepo_bgCarrier" stroke-width="0" transform="translate(0,0), scale(1)">
<rect x="-5.28" y="-5.28" width="34.56" height="34.56" rx="17.28" fill="#223A2F" strokewidth="0"/>
</g>
<g id="SVGRepo_tracerCarrier" stroke-linecap="round" stroke-linejoin="round" stroke="#268c5e" stroke-width="0.672">
<path d="M7.953 15.066c-.08.163-.08.324-.08.486.08.517.528.897 1.052.89h1.294v4.776c0 .486-.404.89-.89.89H6.577a.898.898 0 0 1-.889-.891v-4.774H.992c-.728 0-1.214-.729-.89-1.377l6.96-12.627a1.065 1.065 0 0 1 1.863 0l2.913 5.585-3.885 7.042zm15.945 0-6.96-12.627a1.065 1.065 0 0 0-1.862 0l-2.995 5.586 3.885 7.04c.081.164.081.326.081.487-.08.517-.529.897-1.052.89h-1.296v4.776c.005.49.4.887.89.89h2.914a.9.9 0 0 0 .892-.89v-4.775h4.612c.73 0 1.214-.729.89-1.377z"/>
</g>
<g id="SVGRepo_iconCarrier">
<path d="M7.953 15.066c-.08.163-.08.324-.08.486.08.517.528.897 1.052.89h1.294v4.776c0 .486-.404.89-.89.89H6.577a.898.898 0 0 1-.889-.891v-4.774H.992c-.728 0-1.214-.729-.89-1.377l6.96-12.627a1.065 1.065 0 0 1 1.863 0l2.913 5.585-3.885 7.042zm15.945 0-6.96-12.627a1.065 1.065 0 0 0-1.862 0l-2.995 5.586 3.885 7.04c.081.164.081.326.081.487-.08.517-.529.897-1.052.89h-1.296v4.776c.005.49.4.887.89.89h2.914a.9.9 0 0 0 .892-.89v-4.775h4.612c.73 0 1.214-.729.89-1.377z"/>
</g>
</svg>