<svg xmlns:xlink="http://www.w3.org/1999/xlink" xmlns="http://www.w3.org/2000/svg" viewBox="0 0 24 24" id="svg12403278358" width="24"  height="24" ><path d="M 7.556 5.779 C 7.555 6.761 6.759 7.557 5.777 7.556 C 4.795 7.555 3.999 6.759 4 5.777 C 4.001 4.795 4.797 3.999 5.779 4 C 6.761 4.001 7.557 4.797 7.556 5.779 Z M 7.609 8.872 L 4.053 8.872 L 4.053 20.001 L 7.61 20.001 L 7.61 8.872 Z M 13.227 8.872 L 9.689 8.872 L 9.689 20.001 L 13.191 20.001 L 13.191 14.161 C 13.191 10.908 17.431 10.605 17.431 14.161 L 17.431 20.001 L 20.942 20.001 L 20.942 12.952 C 20.942 7.468 14.667 7.672 13.192 10.365 Z" fill="#FFFFFF"></path></svg>