<svg xmlns:xlink="http://www.w3.org/1999/xlink" xmlns="http://www.w3.org/2000/svg" viewBox="0 0 32 32" id="svg9438150893" width="32"  height="32" ><path d="M 16 5.333 C 10.109 5.333 5.333 10.109 5.333 16 C 5.333 21.891 10.109 26.667 16 26.667 C 21.891 26.667 26.667 21.891 26.667 16 C 26.667 10.109 21.891 5.333 16 5.333 Z M 3.333 16 C 3.333 9.004 9.004 3.333 16 3.333 C 22.996 3.333 28.667 9.004 28.667 16 C 28.667 22.996 22.996 28.667 16 28.667 C 9.004 28.667 3.333 22.996 3.333 16 Z" fill="#FFFFFF"></path><path d="M 16 9.667 C 14.343 9.667 13 11.01 13 12.667 C 13 14.324 14.343 15.667 16 15.667 C 17.657 15.667 19 14.324 19 12.667 C 19 11.01 17.657 9.667 16 9.667 Z M 11 12.667 C 11 9.905 13.239 7.667 16 7.667 C 18.761 7.667 21 9.905 21 12.667 C 21 15.428 18.761 17.667 16 17.667 C 13.239 17.667 11 15.428 11 12.667 Z M 16 21 C 13.012 21 10.387 22.427 8.808 24.589 C 8.483 25.036 7.857 25.133 7.411 24.808 C 6.964 24.483 6.867 23.857 7.192 23.411 C 9.143 20.737 12.367 19 16 19 C 19.633 19 22.857 20.737 24.808 23.411 C 25.133 23.857 25.036 24.483 24.589 24.808 C 24.143 25.133 23.517 25.036 23.192 24.589 C 21.615 22.427 18.988 21 16 21 Z" fill="#FFFFFF"></path></svg>