<svg xmlns:xlink="http://www.w3.org/1999/xlink" xmlns="http://www.w3.org/2000/svg" viewBox="0 0 28 28" id="svg9154464640" width="28"  height="28" ><path d="M 14 3.5 L 14 5.6 M 14 22.4 L 14 24.5 M 5.6 14 L 3.5 14 M 8.03 8.03 L 6.545 6.545 M 19.97 8.03 L 21.455 6.545 M 8.03 19.975 L 6.545 21.459 M 19.97 19.975 L 21.455 21.459 M 24.5 14 L 22.4 14 M 19.25 14 C 19.25 16.9 16.9 19.25 14 19.25 C 11.101 19.25 8.75 16.9 8.75 14 C 8.75 11.101 11.101 8.75 14 8.75 C 16.9 8.75 19.25 11.101 19.25 14 Z" fill="#000000" stroke-width="1.75px" stroke="#C0C0C0" stroke-linecap="round" stroke-linejoin="round" fill-opacity="0"></path></svg>